<?xml version="1.0" encoding="UTF-8"?>
<!DOCTYPE svg PUBLIC "-//W3C//DTD SVG 1.1//EN" "http://www.w3.org/Graphics/SVG/1.1/DTD/svg11.dtd">
<svg xmlns="http://www.w3.org/2000/svg" version="1.1" width="1195px" height="343px" style="shape-rendering:geometricPrecision; text-rendering:geometricPrecision; image-rendering:optimizeQuality; fill-rule:evenodd; clip-rule:evenodd" xmlns:xlink="http://www.w3.org/1999/xlink">
<g><path style="opacity:1" fill="#131314" d="M -0.5,-0.5 C 397.833,-0.5 796.167,-0.5 1194.5,-0.5C 1194.5,113.833 1194.5,228.167 1194.5,342.5C 796.167,342.5 397.833,342.5 -0.5,342.5C -0.5,228.167 -0.5,113.833 -0.5,-0.5 Z"/></g>
<g><path style="opacity:1" fill="#dfdfdf" d="M 548.5,48.5 C 550.92,48.2924 553.253,48.6258 555.5,49.5C 556.333,97.1632 556.833,144.83 557,192.5C 559.96,191.714 562.794,190.548 565.5,189C 578.398,176.771 590.564,163.938 602,150.5C 604.291,147.165 603.791,144.332 600.5,142C 596.627,141.164 592.793,140.331 589,139.5C 588.502,136.518 588.335,133.518 588.5,130.5C 610.5,130.5 632.5,130.5 654.5,130.5C 654.784,133.777 654.451,136.943 653.5,140C 639.125,140.689 626.792,146.022 616.5,156C 606.5,166 596.5,176 586.5,186C 603.975,208.976 621.642,231.809 639.5,254.5C 645.764,259.906 653.098,262.573 661.5,262.5C 661.5,265.5 661.5,268.5 661.5,271.5C 644.167,271.5 626.833,271.5 609.5,271.5C 609.54,268.575 608.707,265.909 607,263.5C 593.445,243.557 579.278,224.057 564.5,205C 562.182,203.007 559.516,201.841 556.5,201.5C 556.067,219.88 556.567,238.214 558,256.5C 558.465,257.931 559.299,259.097 560.5,260C 565.096,261.286 569.763,262.119 574.5,262.5C 574.5,265.5 574.5,268.5 574.5,271.5C 550.5,271.5 526.5,271.5 502.5,271.5C 502.5,268.5 502.5,265.5 502.5,262.5C 508.231,262.061 513.897,261.227 519.5,260C 522.102,259.065 523.602,257.232 524,254.5C 525.143,224.866 525.643,195.2 525.5,165.5C 525.333,137.833 525.167,110.167 525,82.5C 524.375,77.2085 521.541,73.7085 516.5,72C 511.511,71.0256 506.511,70.1923 501.5,69.5C 501.5,66.5 501.5,63.5 501.5,60.5C 517.944,59.1396 533.61,55.1396 548.5,48.5 Z"/></g>
<g><path style="opacity:1" fill="#e1e1e1" d="M 957.5,48.5 C 960.119,48.2317 962.619,48.565 965,49.5C 965.333,82.1667 965.667,114.833 966,147.5C 984.329,129.127 1006.16,122.627 1031.5,128C 1045.17,133.134 1053.34,142.967 1056,157.5C 1056.33,188.167 1056.67,218.833 1057,249.5C 1057.15,254.999 1059.65,258.832 1064.5,261C 1069.12,261.994 1073.78,262.494 1078.5,262.5C 1078.5,265.5 1078.5,268.5 1078.5,271.5C 1053.83,271.5 1029.17,271.5 1004.5,271.5C 1004.5,268.5 1004.5,265.5 1004.5,262.5C 1009.88,261.994 1015.21,261.161 1020.5,260C 1023.63,257.654 1025.46,254.487 1026,250.5C 1026.67,223.5 1026.67,196.5 1026,169.5C 1024.02,152.695 1014.52,144.695 997.5,145.5C 985.54,146.648 975.206,151.315 966.5,159.5C 965.071,190.853 965.238,222.186 967,253.5C 967.427,257.527 969.594,260.027 973.5,261C 977.813,261.735 982.147,262.235 986.5,262.5C 986.5,265.5 986.5,268.5 986.5,271.5C 961.833,271.5 937.167,271.5 912.5,271.5C 912.5,268.5 912.5,265.5 912.5,262.5C 918.699,262.3 924.699,261.134 930.5,259C 933.377,255.372 934.877,251.206 935,246.5C 935.667,191.5 935.667,136.5 935,81.5C 933.221,77.3882 930.388,74.2215 926.5,72C 921.208,70.8402 915.875,70.0068 910.5,69.5C 910.223,66.5525 910.556,63.7191 911.5,61C 927.581,59.1327 942.914,54.9661 957.5,48.5 Z"/></g>
<g><path style="opacity:1" fill="#dfdfdf" d="M 446.5,53.5 C 463.863,52.3709 472.696,60.3709 473,77.5C 466.898,93.3131 456.065,97.8131 440.5,91C 430.804,83.0058 428.971,73.5058 435,62.5C 438.161,58.4905 441.994,55.4905 446.5,53.5 Z"/></g>
<g><path style="opacity:1" fill="#dfdfdf" d="M 126.5,62.5 C 130.5,62.5 134.5,62.5 138.5,62.5C 161.165,124.325 184.332,185.992 208,247.5C 210.167,253.667 214.333,257.833 220.5,260C 225.512,260.871 230.512,261.704 235.5,262.5C 236.484,265.428 236.817,268.428 236.5,271.5C 206.831,271.667 177.165,271.5 147.5,271C 146.205,268.199 146.205,265.366 147.5,262.5C 154.532,261.55 161.532,260.383 168.5,259C 169.931,258.535 171.097,257.701 172,256.5C 172.667,252.833 172.667,249.167 172,245.5C 165.735,228.872 159.568,212.205 153.5,195.5C 131.167,194.167 108.833,194.167 86.5,195.5C 80.3711,211.719 74.5378,228.053 69,244.5C 68.3333,248.167 68.3333,251.833 69,255.5C 70.214,257.049 71.714,258.215 73.5,259C 80.1734,260.235 86.8401,261.402 93.5,262.5C 94.4841,265.428 94.8174,268.428 94.5,271.5C 70.1667,271.5 45.8333,271.5 21.5,271.5C 21.5,268.167 21.5,264.833 21.5,261.5C 33.5961,262.886 42.7628,258.552 49,248.5C 73.5879,187.737 97.5879,126.737 121,65.5C 122.719,64.1312 124.552,63.1312 126.5,62.5 Z"/></g>
<g><path style="opacity:1" fill="#dfdfdf" d="M 855.5,96.5 C 857.242,99.1445 857.909,102.145 857.5,105.5C 857.5,114.167 857.5,122.833 857.5,131.5C 872.167,131.5 886.833,131.5 901.5,131.5C 901.5,135.833 901.5,140.167 901.5,144.5C 886.657,144.171 871.99,144.504 857.5,145.5C 856.833,161.33 856.5,177.33 856.5,193.5C 856.361,210.884 856.861,228.217 858,245.5C 859.833,251.333 863.667,255.167 869.5,257C 880.092,259.636 890.259,258.469 900,253.5C 902.595,255.22 904.095,257.72 904.5,261C 892.779,270.84 879.112,275.673 863.5,275.5C 851.081,275.704 840.581,271.371 832,262.5C 829.806,259.446 828.139,256.112 827,252.5C 825.911,243.716 825.411,234.883 825.5,226C 826.257,199.172 826.59,172.338 826.5,145.5C 819.167,145.5 811.833,145.5 804.5,145.5C 804.183,142.428 804.516,139.428 805.5,136.5C 824.467,128.354 838.8,115.188 848.5,97C 850.81,96.5034 853.143,96.3367 855.5,96.5 Z"/></g>
<g><path style="opacity:1" fill="#6b6b6c" d="M 855.5,96.5 C 856.5,96.5 857.5,96.5 858.5,96.5C 858.81,99.7131 858.477,102.713 857.5,105.5C 857.909,102.145 857.242,99.1445 855.5,96.5 Z"/></g>
<g><path style="opacity:1" fill="#141415" d="M 119.5,104.5 C 129.241,129.879 138.908,155.379 148.5,181C 129.491,181.833 110.491,181.666 91.5,180.5C 101.039,155.215 110.372,129.882 119.5,104.5 Z"/></g>
<g><path style="opacity:1" fill="#e1e1e1" d="M 462.5,124.5 C 464.861,124.674 467.194,125.007 469.5,125.5C 469.045,168.194 469.545,210.86 471,253.5C 471.427,257.527 473.594,260.027 477.5,261C 482.118,261.994 486.785,262.494 491.5,262.5C 491.5,265.5 491.5,268.5 491.5,271.5C 466.5,271.5 441.5,271.5 416.5,271.5C 416.5,268.5 416.5,265.5 416.5,262.5C 422.195,261.913 427.861,261.08 433.5,260C 437.764,255.796 439.598,250.629 439,244.5C 439.667,216.833 439.667,189.167 439,161.5C 439.07,155.632 436.57,151.465 431.5,149C 426.92,147.617 422.253,146.617 417.5,146C 416.556,143.281 416.223,140.448 416.5,137.5C 432.463,135.013 447.796,130.679 462.5,124.5 Z"/></g>
<g><path style="opacity:1" fill="#dfdfdf" d="M 290.5,125.5 C 290.169,132.863 290.503,140.197 291.5,147.5C 292.107,147.376 292.44,147.043 292.5,146.5C 311.9,128.15 334.566,122.316 360.5,129C 373.193,135.204 380.36,145.37 382,159.5C 382.054,190.863 382.72,222.197 384,253.5C 384.427,257.527 386.594,260.027 390.5,261C 395.118,261.994 399.785,262.494 404.5,262.5C 404.5,265.5 404.5,268.5 404.5,271.5C 379.833,271.5 355.167,271.5 330.5,271.5C 330.5,268.5 330.5,265.5 330.5,262.5C 335.886,261.995 341.219,261.161 346.5,260C 349.181,257.806 350.681,254.973 351,251.5C 351.667,222.833 351.667,194.167 351,165.5C 348.154,151.398 339.487,144.731 325,145.5C 312.349,146.327 301.349,150.994 292,159.5C 291.333,190.167 291.333,220.833 292,251.5C 292.319,254.973 293.819,257.806 296.5,260C 301.755,261.376 307.088,262.209 312.5,262.5C 312.5,265.5 312.5,268.5 312.5,271.5C 287.5,271.5 262.5,271.5 237.5,271.5C 237.5,268.5 237.5,265.5 237.5,262.5C 243.211,261.995 248.878,261.162 254.5,260C 256.667,259.167 258.167,257.667 259,255.5C 260.13,238.876 260.63,222.209 260.5,205.5C 260.622,188.463 260.122,171.463 259,154.5C 257.749,151.619 255.583,149.786 252.5,149C 248.23,147.746 243.896,146.746 239.5,146C 238.556,143.281 238.223,140.448 238.5,137.5C 253.881,134.738 268.881,130.571 283.5,125C 285.885,124.444 288.218,124.61 290.5,125.5 Z"/></g>
<g><path style="opacity:1" fill="#616162" d="M 290.5,125.5 C 291.167,132.5 291.833,139.5 292.5,146.5C 292.44,147.043 292.107,147.376 291.5,147.5C 290.503,140.197 290.169,132.863 290.5,125.5 Z"/></g>
<g><path style="opacity:1" fill="#dfdfdf" d="M 722.5,125.5 C 766.287,123.787 787.787,144.787 787,188.5C 776.56,189.821 765.893,190.488 755,190.5C 734.498,190.183 713.998,189.849 693.5,189.5C 692.707,206.046 696.54,221.379 705,235.5C 717.162,250.001 732.662,255.834 751.5,253C 762.954,251.183 773.454,247.016 783,240.5C 785.976,242.451 787.309,245.118 787,248.5C 760.81,276.006 730.31,282.173 695.5,267C 673.834,251.167 663.167,229.667 663.5,202.5C 663.594,176.494 673.261,154.994 692.5,138C 701.578,131.37 711.578,127.203 722.5,125.5 Z"/></g>
<g><path style="opacity:1" fill="#141415" d="M 720.5,137.5 C 737.035,135.174 747.869,141.84 753,157.5C 754.326,164.11 755.16,170.776 755.5,177.5C 735.151,177.268 714.817,177.601 694.5,178.5C 694.915,159.285 703.582,145.619 720.5,137.5 Z"/></g>
<g><path style="opacity:1" fill="#b7b7b7" d="M 901.5,131.5 C 902.486,135.97 902.819,140.637 902.5,145.5C 887.5,145.5 872.5,145.5 857.5,145.5C 871.99,144.504 886.657,144.171 901.5,144.5C 901.5,140.167 901.5,135.833 901.5,131.5 Z"/></g>
<g><path style="opacity:1" fill="#e0e0e0" d="M 1120.5,231.5 C 1137.49,229.002 1147.15,236.169 1149.5,253C 1146.9,270.603 1136.9,277.603 1119.5,274C 1105.18,266.358 1101.68,255.192 1109,240.5C 1112.18,236.462 1116.02,233.462 1120.5,231.5 Z"/></g>
</svg>
