<?xml version="1.0" encoding="UTF-8"?>
<svg version="1.1" xmlns="http://www.w3.org/2000/svg" width="1195" height="343">
<path d="M0 0 C394.35 0 788.7 0 1195 0 C1195 113.19 1195 226.38 1195 343 C800.65 343 406.3 343 0 343 C0 229.81 0 116.62 0 0 Z " fill="#131314" transform="translate(0,0)"/>
<path d="M0 0 C1.61648437 0.01353516 1.61648437 0.01353516 3.265625 0.02734375 C4.08546875 0.03894531 4.9053125 0.05054688 5.75 0.0625 C6.36367432 1.70158325 6.36367432 1.70158325 6.98974609 3.3737793 C14.61808155 23.74516506 22.25846586 44.11200268 29.92578125 64.46875 C30.18962805 65.16927742 30.45347485 65.86980484 30.725317 66.59156036 C33.73327163 74.57727253 36.74353123 82.56211139 39.7565918 90.54589844 C40.86908622 93.49409975 41.98145678 96.44234777 43.09375 99.390625 C43.36919458 100.1206649 43.64463917 100.8507048 43.92843056 101.60286713 C47.79839154 111.86181356 51.6468614 122.12859125 55.48013878 132.40129662 C57.04747936 136.59903094 58.61885784 140.79525553 60.19041157 144.99141407 C61.42421448 148.2869526 62.6551832 151.5834885 63.87924194 154.88265991 C70.71060474 177.85455268 70.71060474 177.85455268 84.75 196.0625 C86.80654484 196.83350345 86.80654484 196.83350345 88.88671875 197.07421875 C89.62857422 197.19216797 90.37042969 197.31011719 91.13476562 197.43164062 C91.89466797 197.53669922 92.65457031 197.64175781 93.4375 197.75 C101.59071856 198.98285928 101.59071856 198.98285928 103.75 200.0625 C103.75 203.0325 103.75 206.0025 103.75 209.0625 C74.38 209.0625 45.01 209.0625 14.75 209.0625 C14.75 205.7625 14.75 202.4625 14.75 199.0625 C16.23113281 198.86914062 17.71226562 198.67578125 19.23828125 198.4765625 C21.17974269 198.21394936 23.12114599 197.95090615 25.0625 197.6875 C26.03896484 197.56117188 27.01542969 197.43484375 28.02148438 197.3046875 C28.95927734 197.17578125 29.89707031 197.046875 30.86328125 196.9140625 C31.72735596 196.79885254 32.59143066 196.68364258 33.48168945 196.56494141 C36.01452196 196.14733053 36.01452196 196.14733053 38.75 194.0625 C40.33456332 186.0651157 37.69435102 178.91563355 34.6875 171.625 C33.86007579 169.52418617 33.034586 167.42260952 32.2109375 165.3203125 C31.79682617 164.27649414 31.38271484 163.23267578 30.95605469 162.15722656 C29.13170214 157.47595271 27.46065123 152.7456547 25.8125 148 C25.53075928 147.19828369 25.24901855 146.39656738 24.95874023 145.57055664 C23.39724418 141.08656628 22.05943633 136.64552714 20.75 132.0625 C-1.36 132.0625 -23.47 132.0625 -46.25 132.0625 C-47.24 135.3625 -48.23 138.6625 -49.25 142.0625 C-50.26120216 144.9777155 -51.28778038 147.87800051 -52.3515625 150.7734375 C-52.63349457 151.54885895 -52.91542664 152.3242804 -53.2059021 153.12319946 C-54.09295803 155.56227259 -54.9836224 158.00000327 -55.875 160.4375 C-56.77322111 162.89652486 -57.6705865 165.35584764 -58.56552124 167.81607056 C-59.11889562 169.33711871 -59.67416515 170.85747913 -60.2315979 172.37704468 C-62.35062324 178.19812442 -63.37458007 182.60449322 -63.3125 188.8125 C-63.30347656 189.98296875 -63.29445312 191.1534375 -63.28515625 192.359375 C-63.27355469 193.25140625 -63.26195312 194.1434375 -63.25 195.0625 C-62.31933716 195.23640259 -62.31933716 195.23640259 -61.36987305 195.41381836 C-58.55867062 195.94037607 -55.74808384 196.47015086 -52.9375 197 C-51.96103516 197.18240234 -50.98457031 197.36480469 -49.97851562 197.55273438 C-49.04072266 197.72998047 -48.10292969 197.90722656 -47.13671875 198.08984375 C-46.27264404 198.25218506 -45.40856934 198.41452637 -44.51831055 198.58178711 C-42.25 199.0625 -42.25 199.0625 -39.25 200.0625 C-39.25 203.0325 -39.25 206.0025 -39.25 209.0625 C-63.01 209.0625 -86.77 209.0625 -111.25 209.0625 C-111.25 205.7625 -111.25 202.4625 -111.25 199.0625 C-110.39277344 198.95292969 -109.53554687 198.84335937 -108.65234375 198.73046875 C-99.22792479 197.42358765 -92.819083 196.36329712 -86.25 189.0625 C-84.84524791 186.71285367 -83.60854374 184.46244199 -82.4296875 182.0078125 C-81.92041214 180.96622482 -81.92041214 180.96622482 -81.40084839 179.90359497 C-77.6237648 172.01007747 -74.49957413 163.86811588 -71.41217041 155.6859436 C-69.96191735 151.84285408 -68.49310353 148.006927 -67.02584839 144.17030334 C-66.2556556 142.15579508 -65.48639577 140.14092989 -64.7180481 138.12571716 C-61.03229083 128.46419808 -57.26716871 118.83452796 -53.48779297 109.20932007 C-47.15536879 93.08042867 -40.86062698 76.93711515 -34.59829712 60.78088379 C-33.38984521 57.66329794 -32.18066692 54.54599452 -30.97143555 51.42871094 C-27.44907276 42.34454721 -23.93661065 33.25689341 -20.45703125 24.15625 C-19.62453262 21.98441802 -18.7916719 19.81272529 -17.9586792 17.64108276 C-17.21013718 15.68418005 -16.46746609 13.72512032 -15.72509766 11.76586914 C-15.28858887 10.62754639 -14.85208008 9.48922363 -14.40234375 8.31640625 C-14.03101318 7.34002197 -13.65968262 6.3636377 -13.27709961 5.35766602 C-12.25 3.0625 -12.25 3.0625 -10.25 1.0625 C-6.86215901 -0.15071333 -3.56840018 -0.03878696 0 0 Z " fill="#E0E0E0" transform="translate(133.25,62.9375)"/>
<path d="M0 0 C2.14055783 2.14055783 1.18641186 7.04948364 1.20532227 10.01782227 C1.21522186 10.96406464 1.22512146 11.91030701 1.23532104 12.88522339 C1.26703803 16.02892511 1.29173361 19.17264198 1.31640625 22.31640625 C1.33696698 24.48974512 1.35796321 26.66307991 1.37937927 28.83641052 C1.43469095 34.56896674 1.48405997 40.30155958 1.53222656 46.03417969 C1.58237535 51.87893958 1.6380959 57.723646 1.69335938 63.56835938 C1.80105213 75.04552728 1.90247225 86.52274153 2 98 C2.53739304 97.52128952 3.07478607 97.04257904 3.62846375 96.54936218 C4.33976944 95.92036514 5.05107513 95.2913681 5.78393555 94.64331055 C6.48632858 94.02022507 7.18872162 93.39713959 7.91239929 92.75517273 C15.63467207 86.2625889 25.39638475 81.85107328 35 79 C35.721875 78.77570313 36.44375 78.55140625 37.1875 78.3203125 C49.84524804 74.9231963 63.8129552 76.38090328 75.3125 82.625 C84.69906705 88.74208864 89.63196898 98.24807009 92 109 C92.10322559 111.92641021 92.15404726 114.82996477 92.15771484 117.7565918 C92.16279556 118.64004776 92.16787628 119.52350372 92.17311096 120.43373108 C92.18380375 122.35109659 92.1924282 124.26847451 92.19923019 126.18585777 C92.21104063 129.2257623 92.23050042 132.26552613 92.25234985 135.30537415 C92.31388429 143.94824506 92.36793906 152.59110191 92.40136719 161.23413086 C92.42237288 166.52325974 92.45772548 171.81213233 92.50212479 177.10111427 C92.51624024 179.1116006 92.52499711 181.12213227 92.52817917 183.13266563 C92.5331164 185.95419286 92.5563473 188.77504643 92.58349609 191.59643555 C92.58048996 192.41806183 92.57748383 193.23968811 92.5743866 194.08621216 C92.65433384 199.71267637 93.54536119 204.88466069 96 210 C98.11369443 211.65094502 98.11369443 211.65094502 100.6875 212 C101.56535156 212.19207031 102.44320313 212.38414062 103.34765625 212.58203125 C104.22292969 212.71996094 105.09820313 212.85789062 106 213 C107.20462891 213.19142578 107.20462891 213.19142578 108.43359375 213.38671875 C110.28295129 213.64055214 112.14125466 213.82789395 114 214 C114 216.97 114 219.94 114 223 C89.91 223 65.82 223 41 223 C41 220.03 41 217.06 41 214 C42.57201172 213.72736328 42.57201172 213.72736328 44.17578125 213.44921875 C45.55480095 213.19592942 46.93370119 212.94198904 48.3125 212.6875 C49.34793945 212.51057617 49.34793945 212.51057617 50.40429688 212.33007812 C53.14737685 211.81326596 55.50947152 211.32529783 57.85546875 209.76953125 C61.00574104 204.89897375 61.29767122 199.72837856 61.29052734 194.08959961 C61.29724457 193.31956604 61.30396179 192.54953247 61.31088257 191.75616455 C61.32980875 189.22149106 61.33378487 186.68708343 61.3359375 184.15234375 C61.34237215 182.37602127 61.34910101 180.59969983 61.35610962 178.82337952 C61.36807113 175.10040841 61.3717919 171.37752998 61.37060547 167.65454102 C61.37040303 162.91614502 61.39763174 158.17835388 61.43214989 153.44010067 C61.45454956 149.76887869 61.45843894 146.09779885 61.45738602 142.42651558 C61.45972519 140.68164562 61.46845222 138.93677072 61.48405075 137.19196892 C61.57486389 125.97868187 61.60558206 114.05310597 54.875 104.4375 C47.87698101 98.50439695 40.54902642 97.32351324 31.5234375 97.6171875 C21.91469872 98.66115247 11.24311423 102.65772521 4.34765625 109.68359375 C3 111 3 111 1 111 C1.06133111 122.57926146 1.13852377 134.15829977 1.23571491 145.73731899 C1.28035645 151.11449611 1.31962631 156.49159855 1.34643555 161.86889648 C1.37253047 167.06266154 1.41297671 172.25613826 1.46318626 177.4497242 C1.47981315 179.42671167 1.49135336 181.40374896 1.49761391 183.38079643 C1.50730053 186.1596861 1.53541393 188.93784499 1.56762695 191.71655273 C1.56619186 192.52576172 1.56475677 193.3349707 1.5632782 194.16870117 C1.65233901 199.63564006 2.28190301 205.1583336 5 210 C8.40003893 212.16479133 11.78788677 212.57030415 15.75 213.125 C17.50570312 213.37636719 17.50570312 213.37636719 19.296875 213.6328125 C20.18890625 213.75398437 21.0809375 213.87515625 22 214 C22 216.97 22 219.94 22 223 C-2.42 223 -26.84 223 -52 223 C-52 220.03 -52 217.06 -52 214 C-50.33710937 213.72736328 -50.33710937 213.72736328 -48.640625 213.44921875 C-47.17698223 213.19589596 -45.71344596 212.9419573 -44.25 212.6875 C-43.52039063 212.56955078 -42.79078125 212.45160156 -42.0390625 212.33007812 C-36.44129418 211.36576409 -36.44129418 211.36576409 -32 208 C-30.19200108 203.54425714 -29.74738207 199.77434491 -29.73930359 194.98561096 C-29.73547804 194.30347013 -29.73165249 193.6213293 -29.72771102 192.91851753 C-29.71743834 190.64554986 -29.72136214 188.37283752 -29.7253418 186.09985352 C-29.72099216 184.46502449 -29.71580817 182.8301975 -29.70985413 181.19537354 C-29.69648042 176.76355895 -29.69588361 172.33182973 -29.69841743 167.8999989 C-29.69948817 164.19721159 -29.69460115 160.49444148 -29.689812 156.79165787 C-29.6787226 148.05502116 -29.67827633 139.31842745 -29.68432617 130.58178711 C-29.6903673 121.57494191 -29.67805014 112.56825288 -29.6567561 103.56143433 C-29.63913258 95.82197976 -29.6331399 88.08257486 -29.63639385 80.34310097 C-29.63820553 75.72350342 -29.63558186 71.10401729 -29.62167931 66.48443794 C-29.60909324 62.13988782 -29.6110524 57.79558098 -29.62409019 53.45103455 C-29.62645377 51.85914973 -29.62372912 50.26724775 -29.61546707 48.67538261 C-29.60497901 46.49709866 -29.61311583 44.31962795 -29.6257782 42.14137268 C-29.62561046 40.92410272 -29.62544271 39.70683275 -29.62526989 38.45267582 C-30.1287674 33.81356718 -31.5165598 29.9554439 -34.375 26.1875 C-38.41286653 23.23675138 -42.95531582 22.56187453 -47.8125 21.875 C-48.97394531 21.70742187 -50.13539063 21.53984375 -51.33203125 21.3671875 C-52.21246094 21.24601562 -53.09289062 21.12484375 -54 21 C-54.09765625 14.84765625 -54.09765625 14.84765625 -54 13 C-51.97771672 10.97771672 -48.15437203 11.13342718 -45.375 10.6875 C-33.23441696 8.63020722 -21.68088886 5.48339893 -10.21875 0.953125 C-6.65043656 -0.10351151 -3.70257507 -0.23828453 0 0 Z " fill="#E1E1E1" transform="translate(965,49)"/>
<path d="M0 0 C0 47.19 0 94.38 0 143 C8.57953362 138.95977647 8.57953362 138.95977647 15.10546875 133.41796875 C15.94400391 132.56783203 16.78253906 131.71769531 17.64648438 130.84179688 C18.90428711 129.52791992 18.90428711 129.52791992 20.1875 128.1875 C21.03763672 127.32318359 21.88777344 126.45886719 22.76367188 125.56835938 C27.69011175 120.52779348 32.41415699 115.35051711 37 110 C37.8839265 108.99592815 38.76802417 107.99200693 39.65234375 106.98828125 C40.40644531 106.10527344 41.16054688 105.22226563 41.9375 104.3125 C42.70964844 103.42175781 43.48179687 102.53101563 44.27734375 101.61328125 C46.16989747 98.74226438 46.39378296 97.36230066 46 94 C41.66720517 92.41483116 37.56156234 91.62609679 33 91 C32.67 90.67 32.34 90.34 32 90 C32 87.03 32 84.06 32 81 C53.78 81 75.56 81 98 81 C98 83.97 98 86.94 98 90 C96.20273492 91.79726508 93.2469993 91.39262826 90.8125 91.625 C71.00352302 94.38295716 57.74836916 108.93680246 44.4375 122.5625 C42.1294252 124.92368487 39.81479992 127.27816651 37.49609375 129.62890625 C36.97220566 130.16939102 36.44831757 130.70987579 35.90855408 131.26673889 C34.64323221 132.54930051 33.32595018 133.78022139 32 135 C31.34 135 30.68 135 30 135 C35.98911115 143.58347267 42.21911801 151.93423602 48.67529297 160.17211914 C52.59311872 165.17586976 56.44973828 170.21892639 60.25 175.3125 C64.70263727 181.27896052 69.19402703 187.21085298 73.76171875 193.08984375 C75.16616229 194.91586546 76.54769135 196.75999233 77.89453125 198.62890625 C85.25622 208.71591544 92.84571882 210.90031379 105 213 C105 215.97 105 218.94 105 222 C87.84 222 70.68 222 53 222 C51.515 218.04 51.515 218.04 50 214 C48.45462038 211.46995371 46.90588455 209.08938591 45.1875 206.6875 C44.71030518 206.00727783 44.23311035 205.32705566 43.74145508 204.6262207 C38.23341292 196.82205707 32.53935139 189.15143818 26.84228516 181.48486328 C24.93350301 178.91030926 23.03383778 176.3292523 21.13671875 173.74609375 C20.50677002 172.88862549 19.87682129 172.03115723 19.2277832 171.14770508 C18.02396199 169.50861105 16.82064555 167.86914615 15.61791992 166.22924805 C14.54748518 164.77398043 13.47175019 163.32258991 12.38964844 161.87597656 C11.23995016 160.32392428 10.13349506 158.73994301 9.0390625 157.1484375 C6.390297 154.35759262 3.53401416 153.43110433 0 152 C0.09257447 158.99283139 0.19991916 165.98532593 0.31738281 172.9777832 C0.355592 175.35500995 0.39045875 177.73229292 0.421875 180.10961914 C0.46770039 183.53291881 0.52566668 186.95583411 0.5859375 190.37890625 C0.59748871 191.43646622 0.60903992 192.49402618 0.62094116 193.58363342 C0.72980483 199.06530238 1.02064708 203.85728762 3 209 C7.18706264 211.74775986 13.10537501 212.10661214 18 213 C18 215.97 18 218.94 18 222 C-5.76 222 -29.52 222 -54 222 C-54 219.03 -54 216.06 -54 213 C-52.80761719 212.80664062 -51.61523438 212.61328125 -50.38671875 212.4140625 C-48.82024888 212.15142084 -47.25384605 211.88837912 -45.6875 211.625 C-44.90181641 211.49867188 -44.11613281 211.37234375 -43.30664062 211.2421875 C-42.1706543 211.04882812 -42.1706543 211.04882812 -41.01171875 210.8515625 C-40.31522217 210.73635254 -39.61872559 210.62114258 -38.90112305 210.50244141 C-36.69171241 210.02824879 -36.69171241 210.02824879 -34 208 C-31.8558358 203.99619393 -31.74673997 200.483563 -31.73930359 195.99197388 C-31.73547804 195.29843681 -31.73165249 194.60489975 -31.72771102 193.89034641 C-31.71741499 191.57281598 -31.72136665 189.25553488 -31.7253418 186.93798828 C-31.72099341 185.27375052 -31.71580984 183.60951477 -31.70985413 181.94528198 C-31.6964658 177.4287006 -31.69588532 172.91220292 -31.69841743 168.39560556 C-31.69948735 164.62327936 -31.69460315 160.85097007 -31.689812 157.07864749 C-31.67871717 148.17758155 -31.67827914 139.2765578 -31.68432617 130.37548828 C-31.69036543 121.19768585 -31.67805612 112.02003675 -31.6567561 102.84226048 C-31.63913298 94.95845378 -31.63313991 87.07469584 -31.63639385 79.19087017 C-31.63820587 74.48406803 -31.63557861 69.77737525 -31.62167931 65.07059097 C-31.6090942 60.64315728 -31.61105151 56.21596233 -31.62409019 51.78853226 C-31.62645412 50.16600971 -31.62372786 48.54347034 -31.61546707 46.9209671 C-31.60498186 44.70103366 -31.61311371 42.48189865 -31.6257782 40.26199341 C-31.62552659 38.40095569 -31.62552659 38.40095569 -31.62526989 36.50232124 C-32.14673032 31.62862175 -33.30605401 27.4111202 -37.19921875 24.16796875 C-40.66530893 22.72255597 -44.1323213 21.95697148 -47.8125 21.3125 C-48.50537109 21.18294922 -49.19824219 21.05339844 -49.91210938 20.91992188 C-51.60644764 20.60442441 -53.30302158 20.30097353 -55 20 C-55 17.36 -55 14.72 -55 12 C-50.06402412 10.49596303 -45.12364745 9.37688364 -40.06811523 8.3503418 C-30.90331139 6.48088907 -22.10930564 4.33827265 -13.40478516 0.87988281 C-8.88058646 -0.88164966 -4.55291386 -2.27645693 0 0 Z " fill="#DFDFDF" transform="translate(557,50)"/>
<path d="M0 0 C0 7.26 0 14.52 0 22 C1.36125 20.845 2.7225 19.69 4.125 18.5 C13.38420207 11.11359269 23.61044672 5.38127363 35 2 C36.0828125 1.66355469 36.0828125 1.66355469 37.1875 1.3203125 C48.58722071 -1.73917137 61.89242637 -1.0664549 72.5 4.25390625 C82.74891828 10.60754309 88.54428411 19.48804095 91.54922485 31.12736511 C92.16132573 35.02807338 92.15270533 38.85140793 92.15771484 42.79418945 C92.16279556 43.66964417 92.16787628 44.54509888 92.17311096 45.44708252 C92.18378995 47.34369732 92.19241976 49.24032453 92.19923019 51.13695717 C92.21105464 54.14306258 92.23051667 57.14902662 92.25234985 60.15507507 C92.31384657 68.70058464 92.36797937 77.24607868 92.40136719 85.79174805 C92.42235586 91.02367233 92.45769117 96.25533667 92.50212479 101.48711205 C92.5162495 103.4760958 92.52499922 105.46512551 92.52817917 107.45415688 C92.53310862 110.2422555 92.5563185 113.02966855 92.58349609 115.81762695 C92.58048996 116.63192673 92.57748383 117.4462265 92.5743866 118.28520203 C92.65393867 123.80329206 93.72838068 127.95326895 96 133 C99.14847364 135.5953634 103.2916725 135.61188347 107.25 136.125 C109.14492188 136.37636719 109.14492188 136.37636719 111.078125 136.6328125 C112.04234375 136.75398437 113.0065625 136.87515625 114 137 C114 139.97 114 142.94 114 146 C89.58 146 65.16 146 40 146 C40 143.03 40 140.06 40 137 C41.10859375 136.85304688 42.2171875 136.70609375 43.359375 136.5546875 C44.82312805 136.32949472 46.28665913 136.10285584 47.75 135.875 C48.47960937 135.7821875 49.20921875 135.689375 49.9609375 135.59375 C50.66992188 135.47773438 51.37890625 135.36171875 52.109375 135.2421875 C53.08342285 135.10079346 53.08342285 135.10079346 54.07714844 134.95654297 C57.24253631 133.38188709 58.31052259 131.05228466 60 128 C60.37534396 125.13197308 60.53880533 122.65707712 60.50170898 119.79833984 C60.50711197 118.99743927 60.51251495 118.1965387 60.51808167 117.37136841 C60.53054595 114.73417722 60.51408483 112.09808344 60.49609375 109.4609375 C60.49624888 107.61495914 60.49774023 105.76898045 60.50050354 103.92300415 C60.50188682 100.05447988 60.48934855 96.18632663 60.46655273 92.31787109 C60.43828798 87.38886305 60.44087386 82.46047672 60.45364285 77.53142357 C60.4606438 73.71695774 60.45275871 69.90263226 60.44038582 66.08818436 C60.43590561 64.27273728 60.43550412 62.45727494 60.43945122 60.64182663 C60.81248274 42.14834415 60.81248274 42.14834415 53 26 C47.2809321 21.29017938 38.54761583 20.53855981 31.33984375 20.75390625 C22.35188955 21.69921696 14.56866929 25.17821536 7 30 C6.13596558 30.51169235 5.27193115 31.0233847 4.38171387 31.55058289 C1.56189743 34.45055619 1.40239544 36.28891539 1.34457397 40.25836182 C1.35783722 41.09325134 1.37110046 41.92814087 1.38476562 42.78833008 C1.37921661 43.67499863 1.3736676 44.56166718 1.36795044 45.47520447 C1.35613747 48.40719612 1.38045166 51.33764755 1.40625 54.26953125 C1.40796118 56.30970692 1.40789535 58.3498848 1.40612793 60.39006042 C1.40778228 64.66821299 1.42649721 68.94584227 1.45800781 73.22387695 C1.49761016 78.69824116 1.5020624 84.1719174 1.49454498 89.64639759 C1.49146919 93.86128501 1.50361877 98.07601882 1.52067566 102.29086876 C1.5276915 104.30861128 1.53083192 106.32637121 1.52998352 108.34412575 C1.53178896 111.17089644 1.55323702 113.9968565 1.58007812 116.82348633 C1.57568222 118.06671158 1.57568222 118.06671158 1.57119751 119.33505249 C1.64804204 124.60217591 2.4953792 128.33493815 5 133 C8.50049674 135.08717864 12.31264494 135.50963768 16.3125 136.125 C17.91544922 136.37636719 17.91544922 136.37636719 19.55078125 136.6328125 C20.35902344 136.75398437 21.16726563 136.87515625 22 137 C22 139.97 22 142.94 22 146 C-2.75 146 -27.5 146 -53 146 C-53 143.03 -53 140.06 -53 137 C-51.81921875 136.82984375 -50.6384375 136.6596875 -49.421875 136.484375 C-47.86444879 136.24044077 -46.30716415 135.9956015 -44.75 135.75 C-43.97269531 135.64042969 -43.19539062 135.53085937 -42.39453125 135.41796875 C-38.82287634 134.83795641 -36.48460684 134.3505018 -33.515625 132.203125 C-30.26461956 127.47743668 -30.85164106 121.8369041 -30.85473633 116.29760742 C-30.85137772 115.43190628 -30.8480191 114.56620514 -30.84455872 113.67427063 C-30.83507539 110.81798866 -30.83310686 107.96176548 -30.83203125 105.10546875 C-30.82881664 103.11395748 -30.82545241 101.12244645 -30.82194519 99.13093567 C-30.81596032 94.95732069 -30.81410461 90.78372639 -30.81469727 86.61010742 C-30.8147988 81.27388958 -30.80115251 75.93780505 -30.78392506 70.60161877 C-30.77278136 66.48797502 -30.77077879 62.37436324 -30.77130699 58.26070595 C-30.77013022 56.29401503 -30.76572553 54.3273232 -30.75797462 52.3606472 C-30.74812778 49.60386317 -30.75107136 46.84736526 -30.75708008 44.09057617 C-30.74865082 42.88315262 -30.74865082 42.88315262 -30.74005127 41.65133667 C-30.77082694 36.06741768 -30.8255728 29.46333711 -34.67578125 25.1015625 C-37.78810266 23.62647908 -40.80599013 23.01275627 -44.1875 22.375 C-50.9133758 21.0866242 -50.9133758 21.0866242 -52 20 C-52.14115161 17.32941149 -52.04247107 14.67567762 -52 12 C-51.38294189 11.8548999 -50.76588379 11.7097998 -50.13012695 11.56030273 C-37.82128508 8.64035106 -25.72410765 5.54839498 -13.86645508 1.09741211 C-13.06361084 0.80874268 -12.2607666 0.52007324 -11.43359375 0.22265625 C-10.74322021 -0.03765381 -10.05284668 -0.29796387 -9.34155273 -0.56616211 C-7 -1 -7 -1 0 0 Z " fill="#DFDFDF" transform="translate(291,126)"/>
<path d="M0 0 C13.03247958 9.95843426 19.19723166 23.34182367 21.375 39.375 C22.06434646 51.99630707 22.06434646 51.99630707 20.375 55.375 C12.67894788 55.39864897 4.98290497 55.41617256 -2.71317482 55.42681217 C-6.29056751 55.43193035 -9.86793457 55.43881337 -13.4453125 55.45043945 C-33.19615781 55.5129427 -52.88893271 55.18071679 -72.625 54.375 C-72.2133251 72.72092228 -69.36595606 91.16035657 -56.5 105.1875 C-45.82981966 115.21100274 -33.0674995 118.09684241 -18.87109375 117.6796875 C-5.51591674 116.93994091 5.80251303 111.71524552 17.375 105.375 C21.38559002 109.75018911 21.38559002 109.75018911 21.33984375 112.44921875 C15.64662034 123.81261607 -0.30714375 132.09697301 -11.74023438 136.11914062 C-31.05437959 142.40245482 -49.18696277 142.19659993 -67.875 133.8125 C-86.32450856 123.84725524 -94.79244143 106.87252331 -100.828125 87.578125 C-106.09540533 66.40572368 -102.45979521 41.8403002 -91.66796875 22.94921875 C-89.7494823 20.00362675 -87.74610001 17.17726628 -85.625 14.375 C-85.15578125 13.72273438 -84.6865625 13.07046875 -84.203125 12.3984375 C-65.0932955 -12.21951932 -25.32731836 -17.27971101 0 0 Z " fill="#DFDFDF" transform="translate(766.625,135.625)"/>
<path d="M0 0 C2.97 0 5.94 0 9 0 C9 11.55 9 23.1 9 35 C23.85 35 38.7 35 54 35 C54 39.62 54 44.24 54 49 C38.82 49 23.64 49 8 49 C8.06178615 65.8185246 8.06178615 65.8185246 8.16015625 82.63671875 C8.20841673 89.50114154 8.25248956 96.36540456 8.27099609 103.22998047 C8.28619473 108.7674408 8.32069767 114.30448176 8.36830902 119.84175491 C8.38308969 121.94909637 8.3910391 124.05649771 8.39188385 126.16389084 C8.39426522 129.12712509 8.42143916 132.08921131 8.45410156 135.05224609 C8.4490712 135.91396423 8.44404083 136.77568237 8.43885803 137.66351318 C8.54488471 143.92403728 9.82998877 149.53868815 13 155 C19.53476713 160.75770468 26.42514675 161.28240365 34.859375 161.23046875 C38.73198493 160.94628469 42.09442052 160.0329187 45.74609375 158.75390625 C48.14364379 157.95195277 50.51485036 157.45144694 53 157 C56 162.625 56 162.625 56 166 C40.03612088 175.86074692 23.91436222 181.42993818 4.875 178.375 C-4.75570625 176.0902855 -13.62311129 171.52214394 -19 163 C-22.15046625 157.01557806 -22.41463713 152.08038709 -22.34057617 145.38305664 C-22.34123329 143.81607529 -22.34123329 143.81607529 -22.34190369 142.21743774 C-22.33982191 138.78148387 -22.31651913 135.34602438 -22.29296875 131.91015625 C-22.28737064 129.52119717 -22.28310156 127.13223464 -22.28010559 124.74327087 C-22.26867385 118.46815412 -22.23922076 112.19324704 -22.20599365 105.91821289 C-22.17525691 99.50995723 -22.16159254 93.10166756 -22.14648438 86.69335938 C-22.11434965 74.1287995 -22.06159509 61.56445002 -22 49 C-29.26 49 -36.52 49 -44 49 C-44 46.03 -44 43.06 -44 40 C-42.64068359 39.36384766 -42.64068359 39.36384766 -41.25390625 38.71484375 C-33.80492753 35.15683205 -27.30331926 31.40102961 -21 26 C-20.13375 25.34837891 -20.13375 25.34837891 -19.25 24.68359375 C-15.13798504 21.49487845 -11.98514 17.66143706 -8.8125 13.5625 C-8.39621338 13.0247998 -7.97992676 12.48709961 -7.55102539 11.93310547 C-4.67882045 8.12382426 -2.29876529 4.18005366 0 0 Z " fill="#E0E0E0" transform="translate(849,97)"/>
<path d="M0 0 C0.00423194 0.60922995 0.00846388 1.21845989 0.01282406 1.84615135 C0.11635287 16.70415867 0.22502273 31.5621218 0.33933926 46.42004967 C0.39450038 53.6053754 0.44795319 60.7907061 0.49731445 67.97607422 C0.54036704 74.24246526 0.58669616 80.50882228 0.63687855 86.77516043 C0.66331095 90.08982634 0.68766884 93.40448596 0.70907402 96.71918869 C0.73331053 100.42921344 0.76333755 104.13915047 0.79467773 107.84912109 C0.80331093 109.47832489 0.80331093 109.47832489 0.81211853 111.14044189 C0.38857963 122.25380204 0.38857963 122.25380204 3.546875 132.515625 C6.99036889 134.5992678 10.30531051 135.15759963 14.25 135.75 C14.99507813 135.87503906 15.74015625 136.00007812 16.5078125 136.12890625 C18.33620503 136.43363834 20.16784304 136.71878521 22 137 C22 139.97 22 142.94 22 146 C-2.75 146 -27.5 146 -53 146 C-53 143.03 -53 140.06 -53 137 C-51.80761719 136.79503906 -50.61523438 136.59007812 -49.38671875 136.37890625 C-47.82029147 136.10689193 -46.25388636 135.83474985 -44.6875 135.5625 C-43.90181641 135.42779297 -43.11613281 135.29308594 -42.30664062 135.15429688 C-41.54931641 135.02216797 -40.79199219 134.89003906 -40.01171875 134.75390625 C-38.96697388 134.57323608 -38.96697388 134.57323608 -37.90112305 134.38891602 C-35.7904669 133.99664201 -35.7904669 133.99664201 -33 133 C-30.66269172 127.34328828 -30.70659265 120.87250086 -30.7253418 114.84350586 C-30.72023087 113.97722061 -30.71511993 113.11093536 -30.70985413 112.21839905 C-30.69606883 109.38380837 -30.69690599 106.54946375 -30.69921875 103.71484375 C-30.69532678 101.72904878 -30.69099108 99.74325463 -30.68623352 97.75746155 C-30.67879588 93.60773003 -30.67904549 89.45808364 -30.68432617 85.30834961 C-30.69012866 80.00355449 -30.67315896 74.69910763 -30.6499815 69.39437008 C-30.63521978 65.29787679 -30.63437559 61.20146703 -30.63749123 57.10495186 C-30.63697961 55.14942292 -30.631772 53.19388911 -30.62167931 51.23838615 C-30.60927979 48.50106257 -30.61612669 45.76441319 -30.62768555 43.02709961 C-30.62004181 42.22843475 -30.61239807 41.4297699 -30.60452271 40.60690308 C-30.65545707 35.12255572 -31.66348274 30.98827059 -34 26 C-38.87386571 22.95383393 -44.10808169 22.30473936 -49.7421875 21.4296875 C-52 21 -52 21 -53 20 C-53.14115161 17.32941149 -53.04247107 14.67567762 -53 12 C-52.35264893 11.8548999 -51.70529785 11.7097998 -51.03833008 11.56030273 C-38.3885224 8.6970582 -25.96880621 5.68019684 -13.81567383 1.09741211 C-13.01798584 0.80874268 -12.22029785 0.52007324 -11.3984375 0.22265625 C-10.71442871 -0.03765381 -10.03041992 -0.29796387 -9.32568359 -0.56616211 C-6.09013642 -1.16972786 -3.2299453 -0.50752086 0 0 Z " fill="#E1E1E1" transform="translate(470,126)"/>
<path d="M0 0 C7.39890652 14.099803 12.2958854 30.02980386 17.52587891 45.04858398 C20.24511981 52.80257274 23.17073597 60.47941327 26.10473633 68.15429688 C26.48009521 69.14365234 26.8554541 70.13300781 27.2421875 71.15234375 C27.5810498 72.03913818 27.91991211 72.92593262 28.26904297 73.83959961 C29 76 29 76 29 78 C10.19 78 -8.62 78 -28 78 C-24.62554019 66.75180065 -24.62554019 66.75180065 -23.20996094 62.95947266 C-22.89242859 62.10382721 -22.57489624 61.24818176 -22.2477417 60.36660767 C-21.91333069 59.47476776 -21.57891968 58.58292786 -21.234375 57.6640625 C-20.87788879 56.70462738 -20.52140259 55.74519226 -20.15411377 54.75668335 C-19.02236512 51.71167883 -17.88654196 48.66821832 -16.75 45.625 C-15.26321401 41.63891448 -13.7786954 37.65199669 -12.296875 33.6640625 C-11.93557495 32.69212952 -11.5742749 31.72019653 -11.20202637 30.71881104 C-8.42034936 23.2055237 -5.74352316 15.65874572 -3.13153076 8.08486938 C-1.0945125 2.18902499 -1.0945125 2.18902499 0 0 Z " fill="#151516" transform="translate(120,104)"/>
<path d="M0 0 C8.86109741 6.52341039 11.15728179 16.27651112 12.859375 26.5859375 C13.22813315 29.94814418 13.21259246 33.23320845 13.19140625 36.61328125 C-7.15225329 37.33572326 -27.44973725 37.7711395 -47.80859375 37.61328125 C-46.62223243 24.12967123 -43.61176592 12.83245259 -33.49609375 3.17578125 C-23.86879395 -4.76674109 -10.99423386 -6.26477211 0 0 Z " fill="#151516" transform="translate(742.80859375,141.38671875)"/>
<path d="M0 0 C5.11748243 3.04019569 8.07444171 7.86207849 10.9375 12.9375 C12.54395762 19.52397624 11.97335871 25.26952182 8.95703125 31.35546875 C5.69690662 36.36893772 1.56395344 39.67797448 -3.9375 41.9375 C-11.53871169 43.15912331 -16.27264784 42.86275971 -23.09765625 39.203125 C-27.57113433 35.94697067 -30.00473352 31.36553296 -32.4375 26.5 C-33.14372529 19.3772135 -33.39803066 13.12765804 -29.00390625 7.21875 C-21.28382939 -1.25215728 -11.24251914 -4.94583691 0 0 Z " fill="#E0E0E0" transform="translate(1138.4375,233.5)"/>
<path d="M0 0 C5.11893534 3.51299484 8.05442698 7.16328093 10 13 C11.0074258 19.94004437 9.12072682 25.32571181 5 31 C-0.69356711 35.93575432 -6.05625077 38.3957995 -13.59375 38.2734375 C-20.28832075 37.51269082 -24.64073798 33.86054551 -28.7734375 28.78125 C-32.50793875 23.35789786 -32.87146474 18.48657259 -32 12 C-29.45600403 5.51444805 -24.66702673 1.08128544 -18.6875 -2.3125 C-11.89611926 -4.04982996 -6.18945549 -3.38668319 0 0 Z " fill="#DFDFDF" transform="translate(464,57)"/>
</svg>
